<svg xmlns="http://www.w3.org/2000/svg" xmlns:xlink="http://www.w3.org/1999/xlink" width="46" zoomAndPan="magnify" viewBox="0 0 34.5 34.5" height="46" preserveAspectRatio="xMidYMid meet" version="1.0"><defs><clipPath id="3a84d0b11b"><path d="M 5.546875 16 L 26 16 L 26 34 L 5.546875 34 Z M 5.546875 16 " clip-rule="nonzero"/></clipPath><clipPath id="f402025e96"><path d="M 6 0 L 28.464844 0 L 28.464844 25 L 6 25 Z M 6 0 " clip-rule="nonzero"/></clipPath><clipPath id="ea58fb3683"><path d="M 17.003906 12.566406 L 18.480469 12.566406 L 18.480469 14 L 17.003906 14 Z M 17.003906 12.566406 " clip-rule="nonzero"/></clipPath></defs><g clip-path="url(#3a84d0b11b)"><path fill="#ffffff" d="M 8.945312 18.234375 C 8.957031 18.15625 8.964844 18.070312 8.964844 17.988281 C 8.964844 17.042969 8.199219 16.28125 7.253906 16.28125 C 6.3125 16.28125 5.546875 17.042969 5.546875 17.988281 C 5.546875 18.929688 6.3125 19.695312 7.253906 19.695312 C 7.703125 19.695312 8.109375 19.523438 8.414062 19.242188 L 24.085938 27.492188 C 22.640625 29.488281 20.523438 31.222656 17.417969 32.726562 C 12.953125 30.558594 10.523438 27.917969 9.210938 24.699219 L 15.730469 28.128906 C 15.71875 28.210938 15.710938 28.292969 15.710938 28.375 C 15.710938 29.320312 16.476562 30.085938 17.421875 30.085938 C 18.363281 30.085938 19.128906 29.320312 19.128906 28.375 C 19.128906 27.433594 18.363281 26.667969 17.421875 26.667969 C 16.972656 26.667969 16.566406 26.839844 16.261719 27.121094 L 8.667969 23.125 L 7.320312 22.414062 C 7.433594 22.925781 7.570312 23.425781 7.726562 23.917969 C 9.015625 27.957031 11.683594 31.273438 17.175781 33.875 L 17.417969 33.988281 L 17.664062 33.875 C 21.164062 32.214844 23.519531 30.265625 25.097656 28.023438 C 25.320312 27.710938 25.527344 27.390625 25.71875 27.066406 L 24.714844 26.535156 Z M 8.945312 18.234375 " fill-opacity="1" fill-rule="nonzero"/></g><g clip-path="url(#f402025e96)"><path fill="#ffffff" d="M 26.742188 21.5 C 26.292969 21.5 25.886719 21.675781 25.582031 21.957031 L 8.367188 12.894531 L 17.417969 8.34375 L 27.148438 13.230469 C 27.144531 14.796875 27.117188 16.277344 27.027344 17.679688 L 19.109375 13.511719 C 19.121094 13.433594 19.128906 13.347656 19.128906 13.265625 C 19.128906 12.320312 18.363281 11.558594 17.421875 11.558594 C 16.476562 11.558594 15.710938 12.320312 15.710938 13.265625 C 15.710938 14.207031 16.476562 14.972656 17.421875 14.972656 C 17.867188 14.972656 18.277344 14.800781 18.582031 14.519531 L 26.929688 18.914062 L 28.011719 19.484375 C 28.054688 19.082031 28.09375 18.671875 28.125 18.257812 C 28.257812 16.5625 28.289062 14.769531 28.289062 12.878906 L 28.289062 12.527344 L 24.144531 10.449219 L 24.144531 6.746094 C 24.144531 3.035156 21.128906 0.0195312 17.417969 0.0195312 C 13.710938 0.0195312 10.691406 3.035156 10.691406 6.746094 L 10.691406 10.449219 L 7.128906 12.238281 L 6.554688 12.527344 L 6.554688 12.878906 C 6.554688 12.996094 6.554688 13.109375 6.554688 13.226562 L 7.695312 13.824219 L 25.050781 22.964844 C 25.039062 23.042969 25.035156 23.125 25.035156 23.210938 C 25.035156 24.152344 25.796875 24.917969 26.742188 24.917969 C 27.683594 24.917969 28.449219 24.152344 28.449219 23.210938 C 28.449219 22.265625 27.683594 21.5 26.742188 21.5 Z M 11.832031 6.746094 C 11.832031 3.664062 14.339844 1.15625 17.417969 1.15625 C 20.5 1.15625 23.007812 3.664062 23.007812 6.746094 L 23.007812 9.875 L 17.417969 7.070312 L 11.832031 9.875 Z M 11.832031 6.746094 " fill-opacity="1" fill-rule="nonzero"/></g><g clip-path="url(#ea58fb3683)"><path fill="#ffffff" d="M 18.183594 13.15625 C 18.183594 13.320312 18.125 13.457031 18.007812 13.574219 C 17.894531 13.6875 17.753906 13.746094 17.59375 13.746094 C 17.429688 13.746094 17.292969 13.6875 17.175781 13.574219 C 17.0625 13.457031 17.003906 13.320312 17.003906 13.15625 C 17.003906 12.996094 17.0625 12.855469 17.175781 12.742188 C 17.292969 12.625 17.429688 12.566406 17.59375 12.566406 C 17.753906 12.566406 17.894531 12.625 18.007812 12.742188 C 18.125 12.855469 18.183594 12.996094 18.183594 13.15625 Z M 18.183594 13.15625 " fill-opacity="1" fill-rule="nonzero"/></g></svg>